<svg width="200" height="200" viewBox="0 0 200 200" fill="none" xmlns="http://www.w3.org/2000/svg">
  <defs>
    <linearGradient id="grad1" x1="0" y1="0" x2="200" y2="200" gradientUnits="userSpaceOnUse">
      <stop offset="0%" stop-color="#7b2cbf"/>
      <stop offset="100%" stop-color="#00d4ff"/>
    </linearGradient>
    <linearGradient id="grad1b" x1="0" y1="0" x2="1" y2="1">
      <stop offset="0%" stop-color="#7b2cbf"/>
      <stop offset="100%" stop-color="#00d4ff"/>
    </linearGradient>
  </defs>

  <!-- Rounded square container -->
  <rect x="10" y="10" width="180" height="180" rx="40" fill="url(#grad1)"/>

  <!-- T letter -->
  <path d="M50 60 L110 60 L110 74 L87 74 L87 145 L73 145 L73 74 L50 74 Z" fill="white"/>

  <!-- B letter -->
  <path d="M95 60 L130 60 C145 60 155 69 155 82 C155 90 150 96 143 99 C152 102 158 110 158 120 C158 135 147 145 132 145 L95 145 L95 131 L130 131 C137 131 143 126 143 120 C143 114 137 109 130 109 L95 109 L95 96 L128 96 C135 96 140 91 140 85 C140 79 135 74 128 74 L95 74 Z" fill="white" opacity="0.9"/>
</svg>
